name dummy_motion_9_GC.mot
datacolumns 40
datarows 8
range 25.00000000 25.07000000
endheader
time	pelvis_rz	pelvis_rx	pelvis_ry	pelvis_tx	pelvis_ty	pelvis_tz	hip_flexion	hip_adduction	hip_rotation	knee_adduction	knee_rotation	knee_flexion	knee_tx	knee_ty	knee_tz	ankle_angle	subtalar_angle	hip_flexion_l	hip_adduction_l	hip_rotation_l	knee_adduction_l	knee_rotation_l	knee_flexion_l	knee_tx_l	knee_ty_l	knee_tz_l	ankle_angle_l	subtalar_angle_l	lumbar_extension	lumbar_bending	lumbar_rotation	arm_flex_r	arm_add_r	arm_rot_r	elbow_flex_r	arm_flex_l	arm_add_l	arm_rot_l	elbow_flex_l	
         25.00000000	          0.00000000	          0.00000000	          0.00000000	          0.00000000	          0.00000000	          0.00000000	         20.06981012	         -3.15718583	        -16.18506120	          0.81704571	         -0.69124094	         12.16308930	          0.00929317	          0.05423994	          0.00811515	         17.30369924	          1.96326238	         -6.88653149	         12.56815368	          4.20278110	          0.00000000	          0.00000000	          9.95265872	          0.00000000	          0.04200000	          0.00000000	         -6.00184696	         16.33714395	        -13.92796890	         14.38481360	          2.59773179	          6.30008375	        -16.87803646	         53.99121899	         26.73168526	          2.66242968	        -17.44518944	         44.07335535	         33.17208645	
         25.01000000	          0.00000000	          0.00000000	          0.00000000	          0.00000000	          0.00000000	          0.00000000	          7.51341392	          3.55275765	          0.89853996	          4.66366422	         -4.26802598	        -45.34947865	          0.00715654	          0.03976319	          0.00424663	         18.54454740	         13.32506054	        -30.87939307	          8.75476069	         -7.53952634	          0.00000000	          0.00000000	        -10.21344887	          0.00000000	          0.04200000	          0.00000000	         14.73438969	          1.38566344	        -11.16370483	          2.98660272	          0.68118181	        -14.91458535	        -20.79775304	         81.71154579	         46.16884327	          5.82245319	        -19.58663926	         52.07096393	         49.14104358	
         25.02000000	          0.00000000	          0.00000000	          0.00000000	          0.00000000	          0.00000000	          0.00000000	         -2.47911094	         14.19238896	         -1.09417596	          4.62553315	          3.07724435	         15.52064719	         -0.00577128	          0.04474986	         -0.00739287	          8.95281379	         13.21243238	         18.39224397	        -14.31849084	         -3.49475983	          0.00000000	          0.00000000	        -70.88869049	          0.00000000	          0.04200000	          0.00000000	          7.89530619	         16.03043399	        -13.37908809	         13.52300009	          3.87038781	         14.03025541	        -20.70816625	         50.89181337	         37.08898084	          9.47125855	        -18.54530026	         47.05133527	         44.51904582	
         25.03000000	          0.00000000	          0.00000000	          0.00000000	          0.00000000	          0.00000000	          0.00000000	        -17.73732314	        -12.22155526	          3.68108060	          4.98397409	         -4.14614234	         -8.87932295	          0.00033893	          0.05898731	         -0.00863481	          6.14036991	         14.27116321	        -30.06180485	         -3.41313358	          8.05344154	          0.00000000	          0.00000000	        -77.36275495	          0.00000000	          0.04200000	          0.00000000	         14.73531771	         -6.16549808	        -19.10993691	         -1.00498735	         -6.88579600	        -20.37265799	        -18.03833622	         14.68555562	         32.38372278	         -9.82027908	        -19.62253882	         54.79967285	         38.51069978	
         25.04000000	          0.00000000	          0.00000000	          0.00000000	          0.00000000	          0.00000000	          0.00000000	          9.76518245	        -15.30287659	         -9.39806373	          0.13527424	          3.95469120	        -14.82339697	         -0.00897729	          0.03022870	         -0.00247421	         22.28035573	         -0.05049328	         24.27810534	        -20.04049512	        -15.27308913	          0.00000000	          0.00000000	        -45.24834756	          0.00000000	          0.04200000	          0.00000000	         -1.00704448	         -0.73111584	        -14.28618217	         10.25801856	        -11.04409194	         18.78318638	        -17.05128035	          5.54237809	          7.33970962	        -15.98922769	        -15.42539449	         17.82046952	          7.72636430	
         25.05000000	          0.00000000	          0.00000000	          0.00000000	          0.00000000	          0.00000000	          0.00000000	        -12.11702906	         -3.12710704	         -4.88446392	          2.22004078	          3.79446602	        -21.12452758	         -0.00171806	          0.03771409	         -0.00332549	          0.59782061	          6.10730390	         23.20332435	         -7.08440458	         -9.20157763	          0.00000000	          0.00000000	        -49.68596127	          0.00000000	          0.04200000	          0.00000000	         -0.60903982	         16.90963662	        -11.98341588	         11.99580151	         -6.23427975	        -12.19374249	        -19.36714724	         38.83169991	         32.80949536	         -3.92325952	        -19.08016372	          5.47553278	         23.19446832	
         25.06000000	          0.00000000	          0.00000000	          0.00000000	          0.00000000	          0.00000000	          0.00000000	          0.51399213	          3.47760039	         -6.43798576	         -3.54165433	         -3.90621033	         -0.24572125	         -0.00328919	          0.05718282	          0.00117974	         -7.38398527	        -10.91107646	        -28.45235515	         -9.88851737	          6.58979371	          0.00000000	          0.00000000	        -26.20074806	          0.00000000	          0.04200000	          0.00000000	         11.66482928	          8.17521493	        -17.57800108	         13.29123401	        -12.13303111	         14.70443207	        -18.91044400	         28.24183039	         32.91116226	        -12.50444793	        -18.90072183	         25.97202014	         32.97591030	
         25.07000000	          0.00000000	          0.00000000	          0.00000000	          0.00000000	          0.00000000	          0.00000000	         22.24806921	         14.46928731	        -13.04251517	         -3.13157195	         -4.27407725	        -49.86551083	         -0.00305384	          0.04298484	         -0.00780882	         -4.59914618	         -9.69981176	        -30.91998462	         -9.46845903	         -4.92639385	          0.00000000	          0.00000000	        -73.05697156	          0.00000000	          0.04200000	          0.00000000	         19.14417261	          1.60034022	        -17.31009936	         -3.76706062	         -5.19605877	        -19.76715038	        -20.42408495	         -0.14179841	         29.03890837	          2.10959312	        -17.54355261	         59.87872354	         27.71504816	
